<svg viewBox="0 0 512 512" xmlns="http://www.w3.org/2000/svg" xmlns:xlink="http://www.w3.org/1999/xlink"><linearGradient id="a" gradientTransform="matrix(1 0 0 -1 0 -12146)" gradientUnits="userSpaceOnUse" x1="0" x2="512" y1="-12402" y2="-12402"><stop offset="0" stop-color="#31d8ff"/><stop offset="1" stop-color="#ff80ff"/></linearGradient><path d="m512 256c0 141.386719-114.613281 256-256 256s-256-114.613281-256-256 114.613281-256 256-256 256 114.613281 256 256zm0 0" fill="url(#a)"/><path d="m256 440.164062c-1.242188 0-2.484375-.15625-3.695312-.464843l-157.5-40.039063c-6.648438-1.691406-11.304688-7.679687-11.304688-14.539062v-264.28125c0-4.628906 2.136719-9 5.792969-11.839844 3.652343-2.84375 8.414062-3.839844 12.902343-2.695312l153.804688 39.101562 153.804688-39.101562c4.488281-1.140626 9.25-.148438 12.902343 2.695312 3.65625 2.839844 5.792969 7.210938 5.792969 11.839844v264.28125c0 6.859375-4.652344 12.847656-11.304688 14.535156l-157.5 40.042969c-1.210937.308593-2.453124.464843-3.695312.464843zm-142.5-66.707031 142.5 36.230469 142.5-36.230469v-233.324219l-138.804688 35.289063c-2.425781.613281-4.964843.613281-7.390624 0l-138.804688-35.289063zm0 0" fill="#fff"/></svg>